<svg width="50" height="53" viewBox="0 0 50 53" fill="none" xmlns="http://www.w3.org/2000/svg">
<circle cx="25" cy="25" r="25" fill="black"/>
<g filter="url(#filter0_d_1_33)">
<path d="M37.4014 23.1247L21.3603 39.257C18.0624 42.5736 16.4135 44.2319 15.7219 43.7363C15.0303 43.2407 16.0704 41.1462 18.1508 36.9572L21.8752 29.4577C22.4876 28.2247 22.7937 27.6082 22.521 27.1421C22.2482 26.6759 21.5608 26.6408 20.1859 26.5707L13.6392 26.2367C11.6546 26.1354 10.6623 26.0848 10.4331 25.4678C10.204 24.8508 10.9227 24.1647 12.3602 22.7926L27.4144 8.42264C30.0468 5.9099 31.363 4.65353 32.0311 5.10757C32.6993 5.56162 32.0158 7.24795 30.6489 10.6206L27.5906 18.1662C26.979 19.6753 26.6731 20.4298 27.0521 20.8894C27.431 21.3491 28.23 21.1928 29.828 20.8803L35.5994 19.7517C38.2166 19.2399 39.5252 18.984 39.8736 19.636C40.222 20.2881 39.2818 21.2336 37.4014 23.1247L37.4014 23.1247Z" fill="white"/>
<path d="M37.4014 23.1247L21.3603 39.257C18.0624 42.5736 16.4135 44.2319 15.7219 43.7363C15.0303 43.2407 16.0704 41.1462 18.1508 36.9572L21.8752 29.4577C22.4876 28.2247 22.7937 27.6082 22.521 27.1421C22.2482 26.6759 21.5608 26.6408 20.1859 26.5707L13.6392 26.2367C11.6546 26.1354 10.6623 26.0848 10.4331 25.4678C10.204 24.8508 10.9227 24.1647 12.3602 22.7926L27.4144 8.42264C30.0468 5.9099 31.363 4.65353 32.0311 5.10757C32.6993 5.56162 32.0158 7.24795 30.6489 10.6206L27.5906 18.1662C26.979 19.6753 26.6731 20.4298 27.0521 20.8894C27.431 21.3491 28.23 21.1928 29.828 20.8803L35.5994 19.7517C38.2166 19.2399 39.5252 18.984 39.8736 19.636C40.222 20.2881 39.2818 21.2336 37.4014 23.1247L37.4014 23.1247Z" stroke="white" stroke-width="2"/>
</g>
<defs>
<filter id="filter0_d_1_33" x="5.3894" y="4.0163" width="39.5556" height="48.8067" filterUnits="userSpaceOnUse" color-interpolation-filters="sRGB">
<feFlood flood-opacity="0" result="BackgroundImageFix"/>
<feColorMatrix in="SourceAlpha" type="matrix" values="0 0 0 0 0 0 0 0 0 0 0 0 0 0 0 0 0 0 127 0" result="hardAlpha"/>
<feOffset dy="4"/>
<feGaussianBlur stdDeviation="2"/>
<feComposite in2="hardAlpha" operator="out"/>
<feColorMatrix type="matrix" values="0 0 0 0 1 0 0 0 0 1 0 0 0 0 1 0 0 0 0.28 0"/>
<feBlend mode="normal" in2="BackgroundImageFix" result="effect1_dropShadow_1_33"/>
<feBlend mode="normal" in="SourceGraphic" in2="effect1_dropShadow_1_33" result="shape"/>
</filter>
</defs>
</svg>
